<svg width="20" height="16" viewBox="0 0 20 16" xmlns="http://www.w3.org/2000/svg">
<path d="M16.9419 1.88613C15.6472 1.31705 14.2629 0.90345 12.8158 0.667969C12.638 0.969867 12.4303 1.37592 12.2872 1.69895C10.7487 1.48159 9.22442 1.48159 7.71429 1.69895C7.57116 1.37592 7.35876 0.969867 7.17947 0.667969C5.73067 0.90345 4.34479 1.31856 3.05016 1.88915C0.43887 5.59646 -0.269009 9.21172 0.0849305 12.7756C1.81688 13.9908 3.49534 14.7289 5.14548 15.2119C5.55291 14.6851 5.91628 14.1251 6.22933 13.5349C5.63314 13.322 5.06211 13.0594 4.52255 12.7545C4.6657 12.6549 4.8057 12.5507 4.94099 12.4435C8.23187 13.8896 11.8074 13.8896 15.059 12.4435C15.1958 12.5507 15.3358 12.6549 15.4774 12.7545C14.9362 13.0609 14.3637 13.3235 13.7674 13.5364C14.0805 14.1251 14.4423 14.6866 14.8513 15.2134C16.503 14.7304 18.183 13.9923 19.915 12.7756C20.3303 8.64415 19.2055 5.0621 16.9419 1.88613ZM6.67765 10.5838C5.68977 10.5838 4.87963 9.71736 4.87963 8.66227C4.87963 7.60711 5.67246 6.73917 6.67765 6.73917C7.68285 6.73917 8.49295 7.6056 8.47565 8.66227C8.47726 9.71736 7.68285 10.5838 6.67765 10.5838ZM13.3223 10.5838C12.3344 10.5838 11.5242 9.71736 11.5242 8.66227C11.5242 7.60711 12.3171 6.73917 13.3223 6.73917C14.3274 6.73917 15.1376 7.6056 15.1203 8.66227C15.1203 9.71736 14.3274 10.5838 13.3223 10.5838Z"/>
</svg>
